<svg height="96" viewBox="0 0 96 96" width="96" xmlns="http://www.w3.org/2000/svg"><switch><path d="m84 12h-52l-32 36 32 36h52c6.627 0 12-5.373 12-12v-48c0-6.627-5.373-12-12-12zm4 60c0 2.206-1.794 4-4 4h-48.407l-24.889-28 24.889-28h48.407c2.206 0 4 1.794 4 4zm-13.172-14.828a4 4 0 1 1 -5.656 5.656l-9.172-9.171-9.172 9.171c-.781.781-1.805 1.172-2.828 1.172s-2.047-.391-2.828-1.172a4 4 0 0 1 0-5.656l9.171-9.172-9.171-9.172a4 4 0 1 1 5.656-5.656l9.172 9.171 9.172-9.171a4 4 0 1 1 5.656 5.656l-9.171 9.172z"/></switch></svg>
